<?xml version="1.0" encoding="UTF-8" standalone="no"?>
<svg
   xmlns:dc="http://purl.org/dc/elements/1.1/"
   xmlns:cc="http://creativecommons.org/ns#"
   xmlns:rdf="http://www.w3.org/1999/02/22-rdf-syntax-ns#"
   xmlns:svg="http://www.w3.org/2000/svg"
   xmlns="http://www.w3.org/2000/svg"
   xmlns:sodipodi="http://sodipodi.sourceforge.net/DTD/sodipodi-0.dtd"
   xmlns:inkscape="http://www.inkscape.org/namespaces/inkscape"
   width="26.632429mm"
   height="21.166666mm"
   viewBox="0 0 26.63243 21.166666"
   version="1.1"
   id="svg8"
   inkscape:version="1.0.1 (1.0.1+r75)"
   sodipodi:docname="imageOnEmpty.svg">
  <defs
     id="defs2" />
  <sodipodi:namedview
     id="base"
     pagecolor="#ffffff"
     bordercolor="#666666"
     borderopacity="1.0"
     inkscape:pageopacity="0.0"
     inkscape:pageshadow="2"
     inkscape:zoom="2.8284271"
     inkscape:cx="48.928331"
     inkscape:cy="44.327035"
     inkscape:document-units="mm"
     inkscape:current-layer="layer1"
     inkscape:document-rotation="0"
     showgrid="false"
     inkscape:window-width="1366"
     inkscape:window-height="713"
     inkscape:window-x="0"
     inkscape:window-y="27"
     inkscape:window-maximized="1"
     showguides="false"
     inkscape:guide-bbox="true"
     inkscape:lockguides="true"
     fit-margin-top="0"
     fit-margin-left="0"
     fit-margin-right="0"
     fit-margin-bottom="0"
     inkscape:snap-global="false"
     inkscape:object-paths="true">
    <sodipodi:guide
       position="-39.669706,-11.808443"
       orientation="1,0"
       id="guide2231"
       inkscape:locked="true" />
    <sodipodi:guide
       position="-30.423676,-8.1771598"
       orientation="0.74135169,0.67111673"
       id="guide2244"
       inkscape:locked="true" />
    <sodipodi:guide
       position="46.77217,21.166665"
       orientation="0,-1"
       id="guide1096" />
    <sodipodi:guide
       position="55.845971,-0.067897847"
       orientation="0,-1"
       id="guide1098" />
  </sodipodi:namedview>
  <metadata
     id="metadata5">
    <rdf:RDF>
      <cc:Work
         rdf:about="">
        <dc:format>image/svg+xml</dc:format>
        <dc:type
           rdf:resource="http://purl.org/dc/dcmitype/StillImage" />
        <dc:title />
      </cc:Work>
    </rdf:RDF>
  </metadata>
  <g
     inkscape:label="Layer 1"
     inkscape:groupmode="layer"
     id="layer1"
     transform="translate(-102.0833,-103.79903)">
    <text
       xml:space="preserve"
       style="font-style:normal;font-variant:normal;font-weight:normal;font-stretch:normal;font-size:10.5833px;line-height:1.25;font-family:Montserrat;-inkscape-font-specification:Montserrat;stroke-width:0.264583"
       x="41.535248"
       y="155.57552"
       id="text2214"><tspan
         sodipodi:role="line"
         id="tspan2212"
         x="41.535248"
         y="155.57552"
         style="font-style:normal;font-variant:normal;font-weight:normal;font-stretch:normal;font-family:Montserrat;-inkscape-font-specification:Montserrat;stroke-width:0.264583" /></text>
    <g
       id="g1058">
      <path
         style="color:#000000;font-style:normal;font-variant:normal;font-weight:normal;font-stretch:normal;font-size:medium;line-height:normal;font-family:sans-serif;font-variant-ligatures:normal;font-variant-position:normal;font-variant-caps:normal;font-variant-numeric:normal;font-variant-alternates:normal;font-variant-east-asian:normal;font-feature-settings:normal;font-variation-settings:normal;text-indent:0;text-align:start;text-decoration:none;text-decoration-line:none;text-decoration-style:solid;text-decoration-color:#000000;letter-spacing:normal;word-spacing:normal;text-transform:none;writing-mode:lr-tb;direction:ltr;text-orientation:mixed;dominant-baseline:auto;baseline-shift:baseline;text-anchor:start;white-space:normal;shape-padding:0;shape-margin:0;inline-size:0;clip-rule:nonzero;display:inline;overflow:visible;visibility:visible;isolation:auto;mix-blend-mode:normal;color-interpolation:sRGB;color-interpolation-filters:linearRGB;solid-color:#000000;solid-opacity:1;vector-effect:none;fill:#c6c6c6;fill-opacity:1;fill-rule:nonzero;stroke:none;stroke-width:0.465;stroke-linecap:round;stroke-linejoin:miter;stroke-miterlimit:4;stroke-dasharray:none;stroke-dashoffset:0;stroke-opacity:1;color-rendering:auto;image-rendering:auto;shape-rendering:auto;text-rendering:auto;enable-background:accumulate;stop-color:#000000;stop-opacity:1;opacity:1"
         d="M 126.12109 105.62891 A 0.2325 0.2325 0 0 0 126.04297 105.6543 A 0.2325 0.2325 0 0 0 125.94336 105.9668 C 126.59344 107.22877 126.81309 108.81246 126.33789 109.96094 C 126.10029 110.53518 125.6994 111.00388 125.07812 111.30859 C 124.45685 111.61331 123.60425 111.75114 122.4707 111.61328 A 0.2325 0.2325 0 0 0 122.21289 111.81641 A 0.2325 0.2325 0 0 0 122.41406 112.07617 C 123.61224 112.22189 124.55915 112.08073 125.28125 111.72656 C 126.00335 111.3724 126.49253 110.80342 126.76758 110.13867 C 127.31767 108.80918 127.05724 107.11621 126.35547 105.75391 A 0.2325 0.2325 0 0 0 126.12109 105.62891 z "
         id="path859" />
      <path
         style="color:#000000;font-style:normal;font-variant:normal;font-weight:600;font-stretch:normal;font-size:10.9155px;line-height:1.25;font-family:Montserrat;-inkscape-font-specification:'Montserrat Semi-Bold';font-variant-ligatures:normal;font-variant-position:normal;font-variant-caps:normal;font-variant-numeric:normal;font-variant-alternates:normal;font-variant-east-asian:normal;font-feature-settings:normal;font-variation-settings:normal;text-indent:0;text-align:start;text-decoration:none;text-decoration-line:none;text-decoration-style:solid;text-decoration-color:#000000;letter-spacing:normal;word-spacing:normal;text-transform:none;writing-mode:lr-tb;direction:ltr;text-orientation:mixed;dominant-baseline:auto;baseline-shift:baseline;text-anchor:start;white-space:normal;shape-padding:0;shape-margin:0;inline-size:0;clip-rule:nonzero;display:inline;overflow:visible;visibility:visible;isolation:auto;mix-blend-mode:normal;color-interpolation:sRGB;color-interpolation-filters:linearRGB;solid-color:#000000;solid-opacity:1;vector-effect:none;fill:#ffffff;fill-opacity:1;fill-rule:nonzero;stroke:none;stroke-width:0.551085;stroke-linecap:butt;stroke-linejoin:miter;stroke-miterlimit:4;stroke-dasharray:none;stroke-dashoffset:0;stroke-opacity:1;color-rendering:auto;image-rendering:auto;shape-rendering:auto;text-rendering:auto;enable-background:accumulate;stop-color:#000000"
         d="m 115.69161,104.07457 c -1.91316,0 -3.63696,0.43872 -5.17217,1.31811 -1.53526,0.87942 -2.74048,2.09915 -3.6144,3.65689 -0.85027,1.55778 -1.27477,3.32835 -1.27477,5.31324 0,1.98489 0.4245,3.76949 1.27477,5.35235 0.87392,1.55775 2.07914,2.77581 3.6144,3.65519 1.53521,0.87939 3.25901,1.3198 5.17217,1.3198 1.93674,0 3.67177,-0.44041 5.20702,-1.3198 1.53525,-0.87938 2.72926,-2.09744 3.57955,-3.65519 0.8739,-1.58286 1.31131,-3.36746 1.31131,-5.35235 0,-1.98489 -0.43741,-3.75546 -1.31131,-5.31324 -0.85029,-1.55774 -2.0443,-2.77747 -3.57955,-3.65689 -1.53525,-0.87939 -3.27028,-1.31811 -5.20702,-1.31811 z m 0,3.99428 c 1.62971,0 2.97645,0.5779 4.03933,1.73369 1.06282,1.15573 1.59346,2.67588 1.59346,4.56027 0,1.88441 -0.53064,3.40367 -1.59346,4.55943 -1.06288,1.15573 -2.40962,1.7354 -4.03933,1.7354 -1.62972,0 -2.9765,-0.57967 -4.03932,-1.7354 -1.03928,-1.15576 -1.55863,-2.67502 -1.55863,-4.55943 0,-1.88439 0.51935,-3.40454 1.55863,-4.56027 1.06282,-1.15579 2.4096,-1.73369 4.03932,-1.73369 z"
         id="path872" />
      <path
         style="color:#000000;font-style:normal;font-variant:normal;font-weight:600;font-stretch:normal;font-size:10.9155px;line-height:1.25;font-family:Montserrat;-inkscape-font-specification:'Montserrat Semi-Bold';font-variant-ligatures:normal;font-variant-position:normal;font-variant-caps:normal;font-variant-numeric:normal;font-variant-alternates:normal;font-variant-east-asian:normal;font-feature-settings:normal;font-variation-settings:normal;text-indent:0;text-align:start;text-decoration:none;text-decoration-line:none;text-decoration-style:solid;text-decoration-color:#000000;letter-spacing:normal;word-spacing:normal;text-transform:none;writing-mode:lr-tb;direction:ltr;text-orientation:mixed;dominant-baseline:auto;baseline-shift:baseline;text-anchor:start;white-space:normal;shape-padding:0;shape-margin:0;inline-size:0;clip-rule:nonzero;display:inline;overflow:visible;visibility:visible;isolation:auto;mix-blend-mode:normal;color-interpolation:sRGB;color-interpolation-filters:linearRGB;solid-color:#000000;solid-opacity:1;vector-effect:none;fill:#d8e9fd;fill-opacity:1;fill-rule:nonzero;stroke:none;stroke-width:0.551085;stroke-linecap:butt;stroke-linejoin:miter;stroke-miterlimit:4;stroke-dasharray:none;stroke-dashoffset:0;stroke-opacity:1;color-rendering:auto;image-rendering:auto;shape-rendering:auto;text-rendering:auto;enable-background:accumulate;stop-color:#000000"
         d="m 115.69141,103.79883 c -1.95529,0 -3.73049,0.45151 -5.3086,1.35547 -1.57664,0.90312 -2.82197,2.16127 -3.71875,3.75976 v 0.002 0.002 c -0.87386,1.601 -1.30859,3.42114 -1.30859,5.44531 0,2.02418 0.4336,3.85718 1.30664,5.48242 l 0.002,0.002 v 0.002 c 0.89682,1.59857 2.14224,2.85675 3.71875,3.75977 1.57798,0.90388 3.35315,1.35546 5.3086,1.35546 1.97851,0 3.76523,-0.45129 5.34375,-1.35546 1.577,-0.9033 2.81222,-2.16178 3.68554,-3.76172 h -0.002 c 0.89745,-1.62552 1.3457,-3.45901 1.3457,-5.48438 0,-2.02377 -0.44687,-3.84496 -1.34375,-5.44531 v -0.002 c -0.87324,-1.5992 -2.10888,-2.85858 -3.68554,-3.76172 -1.57865,-0.90425 -3.3654,-1.35547 -5.34375,-1.35547 z m 0,0.55078 c 1.89512,0 3.57845,0.42672 5.07031,1.28125 1.49336,0.85543 2.64731,2.03516 3.47461,3.55078 v 0.002 h 0.002 c 0.84951,1.5143 1.27539,3.23528 1.27539,5.17969 0,1.94441 -0.42699,3.67855 -1.27734,5.21875 v 0.002 c -0.82726,1.51556 -1.98112,2.69142 -3.47461,3.54688 -1.49199,0.85461 -3.17535,1.2832 -5.07031,1.2832 -1.87088,0 -3.54271,-0.42831 -5.03516,-1.2832 -1.49239,-0.85482 -2.65703,-2.03232 -3.50781,-3.54688 -0.82751,-1.54048 -1.24219,-3.27509 -1.24219,-5.2207 0,-1.94466 0.4124,-3.66566 1.23828,-5.17969 l 0.002,-0.002 c 0.85094,-1.51581 2.0167,-2.69553 3.50977,-3.55078 1.49231,-0.85482 3.16412,-1.28125 5.03516,-1.28125 z m 0,3.44336 c -1.69486,0 -3.13184,0.61479 -4.24219,1.82226 v 0.002 l -0.002,0.002 c -1.08909,1.21112 -1.62891,2.80912 -1.62891,4.74414 0,1.93504 0.53987,3.53305 1.62891,4.74414 h 0.002 v 0.002 c 1.11025,1.2073 2.54713,1.82421 4.24219,1.82421 1.69504,0 3.13188,-0.61691 4.24218,-1.82421 1.11333,-1.21069 1.66602,-2.80996 1.66602,-4.7461 0,-1.93612 -0.55264,-3.53734 -1.66602,-4.74805 -1.1104,-1.20746 -2.54733,-1.82226 -4.24218,-1.82226 z m 0,0.55078 c 1.56457,0 2.82058,0.54042 3.83593,1.64453 1.01227,1.10075 1.52149,2.54234 1.52149,4.375 0,1.83268 -0.50917,3.27221 -1.52149,4.37305 -1.01545,1.10416 -2.27156,1.64648 -3.83593,1.64648 -1.56439,0 -2.82055,-0.54233 -3.83594,-1.64648 -0.98833,-1.10017 -1.48633,-2.54037 -1.48633,-4.37305 0,-1.83266 0.49804,-3.27491 1.48633,-4.375 l 0.002,-0.002 c 1.01495,-1.10267 2.27042,-1.64258 3.83399,-1.64258 z"
         id="path874" />
      <circle
         style="fill:#999999;fill-opacity:1;stroke-width:1.09537;stroke-linecap:round;stroke-linejoin:round"
         id="circle943"
         cx="123.28625"
         cy="110.29652"
         r="0.9667387" />
      <circle
         style="fill:#999999;fill-opacity:1;stroke-width:1.09537;stroke-linecap:round;stroke-linejoin:round"
         id="circle947"
         cx="119.34422"
         cy="110.29652"
         r="0.9667387" />
      <circle
         style="fill:#c6c6c6;fill-opacity:1;stroke:none;stroke-width:0.64175;stroke-linecap:round;stroke-linejoin:round;stroke-miterlimit:4;stroke-dasharray:none;stroke-opacity:1"
         id="circle951"
         cx="-115.04064"
         cy="115.39241"
         r="0.56460404"
         transform="scale(-1,1)" />
      <path
         style="color:#000000;font-style:normal;font-variant:normal;font-weight:600;font-stretch:normal;font-size:10.9155px;line-height:1.25;font-family:Montserrat;-inkscape-font-specification:'Montserrat Semi-Bold';font-variant-ligatures:normal;font-variant-position:normal;font-variant-caps:normal;font-variant-numeric:normal;font-variant-alternates:normal;font-variant-east-asian:normal;font-feature-settings:normal;font-variation-settings:normal;text-indent:0;text-align:start;text-decoration:none;text-decoration-line:none;text-decoration-style:solid;text-decoration-color:#000000;letter-spacing:normal;word-spacing:normal;text-transform:none;writing-mode:lr-tb;direction:ltr;text-orientation:mixed;dominant-baseline:auto;baseline-shift:baseline;text-anchor:start;white-space:normal;shape-padding:0;shape-margin:0;inline-size:0;clip-rule:nonzero;display:inline;overflow:visible;visibility:visible;isolation:auto;mix-blend-mode:normal;color-interpolation:sRGB;color-interpolation-filters:linearRGB;solid-color:#000000;solid-opacity:1;vector-effect:none;fill:#ffffff;fill-opacity:1;fill-rule:nonzero;stroke:none;stroke-width:0.491625;stroke-linecap:butt;stroke-linejoin:round;stroke-miterlimit:4;stroke-dasharray:1.9665, 0.983251;stroke-dashoffset:0;stroke-opacity:1;color-rendering:auto;image-rendering:auto;shape-rendering:auto;text-rendering:auto;enable-background:accumulate;stop-color:#000000"
         d="m 127.84725,115.81053 -20.69225,3.32164 -0.91648,-6.10781 -3.90955,0.5742 0.92502,6.15898 0.58307,3.88025 3.90745,-0.57469 -0.008,-0.0462 20.73336,-3.30565 z"
         id="path997" />
      <path
         id="path999"
         style="color:#000000;font-style:normal;font-variant:normal;font-weight:600;font-stretch:normal;font-size:10.9155px;line-height:1.25;font-family:Montserrat;-inkscape-font-specification:'Montserrat Semi-Bold';font-variant-ligatures:normal;font-variant-position:normal;font-variant-caps:normal;font-variant-numeric:normal;font-variant-alternates:normal;font-variant-east-asian:normal;font-feature-settings:normal;font-variation-settings:normal;text-indent:0;text-align:start;text-decoration:none;text-decoration-line:none;text-decoration-style:solid;text-decoration-color:#000000;letter-spacing:normal;word-spacing:normal;text-transform:none;writing-mode:lr-tb;direction:ltr;text-orientation:mixed;dominant-baseline:auto;baseline-shift:baseline;text-anchor:start;white-space:normal;shape-padding:0;shape-margin:0;inline-size:0;clip-rule:nonzero;display:inline;overflow:visible;visibility:visible;isolation:auto;mix-blend-mode:normal;color-interpolation:sRGB;color-interpolation-filters:linearRGB;solid-color:#000000;solid-opacity:1;vector-effect:none;fill:#d8e9fd;fill-opacity:1;fill-rule:nonzero;stroke:none;stroke-width:0.491625;stroke-linecap:butt;stroke-linejoin:round;stroke-miterlimit:4;stroke-dasharray:1.96651, 0.983251;stroke-dashoffset:0;stroke-opacity:1;color-rendering:auto;image-rendering:auto;shape-rendering:auto;text-rendering:auto;enable-background:accumulate;stop-color:#000000"
         d="m 106.23274,112.7788 c -0.01,3.8e-4 -0.0197,0.002 -0.0296,0.003 l -1.36657,0.19972 0.0719,0.48713 1.12338,-0.16563 0.051,0.33687 0.48563,-0.0734 -0.0866,-0.5778 c -0.0183,-0.12278 -0.12509,-0.21292 -0.24918,-0.20984 z m -2.36931,0.34585 -1.57041,0.23083 c -0.13469,0.0201 -0.22749,0.14567 -0.20685,0.28028 l 0.0566,0.37396 0.48562,-0.0723 -0.0199,-0.13152 1.32723,-0.19411 z m 2.85081,1.41454 -0.48563,0.0738 0.29153,1.94438 0.486,-0.0734 z m -3.93972,0.36984 -0.486,0.0734 0.2919,1.94476 0.48562,-0.0738 z m 25.03336,0.65837 -1.94176,0.31176 -0.21248,0.53483 2.2318,-0.36059 z m -2.91188,0.46764 -1.94176,0.31138 0.0779,0.48563 1.94176,-0.31139 z m -2.91338,0.46726 -1.94139,0.31289 0.0776,0.4845 1.94175,-0.31176 z m 6.19548,0.042 -0.48563,0.0765 0.30988,1.94175 0.48601,-0.0764 z m -9.10699,0.4268 -1.94176,0.31139 0.0779,0.4845 1.94138,-0.31176 z m -2.91339,0.46727 -1.94176,0.31176 0.078,0.48562 1.94175,-0.31288 z m -9.00582,0.0184 -0.48563,0.0723 0.24619,1.64012 c 0.0207,0.13476 0.14714,0.22689 0.28179,0.20534 l 0.30464,-0.0483 -0.0779,-0.48563 -0.0592,0.01 z m -3.94009,0.36984 -0.48563,0.0734 0.28479,1.89342 0.007,0.051 0.48713,-0.0734 -0.008,-0.0495 z m 10.03403,0.0791 -1.94139,0.31176 0.078,0.48563 1.94138,-0.31139 z m -2.91301,0.46764 -1.94176,0.31139 0.0794,0.48562 1.94176,-0.31138 z m 18.28068,0.67411 -0.48563,0.0776 0.0607,0.38258 -1.07468,0.17125 0.0776,0.486 1.3171,-0.21134 c 0.13355,-0.0215 0.22496,-0.14663 0.20422,-0.28029 z m -2.46973,0.78577 -2.273,0.36234 -0.14639,0.52153 2.49583,-0.39787 z m -2.91338,0.46464 -1.94175,0.31026 0.0764,0.48413 1.94175,-0.30876 z m -19.57943,0.44591 -0.48562,0.0723 0.29152,1.94476 0.486,-0.0723 z m 16.66642,0.0187 -1.94175,0.30989 0.0764,0.4845 1.94288,-0.30876 z m -2.91338,0.46427 -1.94175,0.31026 0.0779,0.4845 1.94175,-0.30876 z m -2.913,0.46464 -1.94176,0.30876 0.0779,0.48563 1.94138,-0.30876 z m -2.91339,0.46464 -2.45136,0.39757 0.0391,0.2356 0.39368,0.19232 2.09651,-0.33986 z m -2.91188,0.46427 -1.87319,0.28965 0.0708,0.48713 1.87919,-0.29078 z m -2.85905,0.48038 -1.94626,0.28591 0.0712,0.48562 1.94588,-0.2859 z"
         sodipodi:nodetypes="ccccccccccccccccccccccccccccccccccccccccccccccccccccccccccccccccccccccccccccccccccccccccccccccccccccccccccccccccccccccccccccccccccccccccc" />
      <path
         style="color:#000000;font-style:normal;font-variant:normal;font-weight:normal;font-stretch:normal;font-size:medium;line-height:normal;font-family:sans-serif;font-variant-ligatures:normal;font-variant-position:normal;font-variant-caps:normal;font-variant-numeric:normal;font-variant-alternates:normal;font-variant-east-asian:normal;font-feature-settings:normal;font-variation-settings:normal;text-indent:0;text-align:start;text-decoration:none;text-decoration-line:none;text-decoration-style:solid;text-decoration-color:#000000;letter-spacing:normal;word-spacing:normal;text-transform:none;writing-mode:lr-tb;direction:ltr;text-orientation:mixed;dominant-baseline:auto;baseline-shift:baseline;text-anchor:start;white-space:normal;shape-padding:0;shape-margin:0;inline-size:0;clip-rule:nonzero;display:inline;overflow:visible;visibility:visible;isolation:auto;mix-blend-mode:normal;color-interpolation:sRGB;color-interpolation-filters:linearRGB;solid-color:#000000;solid-opacity:1;vector-effect:none;fill:#c6c6c6;fill-opacity:1;fill-rule:nonzero;stroke:none;stroke-width:0.435067;stroke-linecap:round;stroke-linejoin:miter;stroke-miterlimit:4;stroke-dasharray:none;stroke-dashoffset:0;stroke-opacity:1;color-rendering:auto;image-rendering:auto;shape-rendering:auto;text-rendering:auto;enable-background:accumulate;stop-color:#000000;stop-opacity:1;opacity:1"
         d="M 115.00391 115.18945 A 0.2175335 0.2175335 0 0 0 114.79297 115.31836 C 114.79297 115.31836 114.4786 116.02698 114.25977 116.91992 C 114.04093 117.81286 113.89351 118.9004 114.31055 119.71094 A 0.2175335 0.2175335 0 0 0 114.60352 119.80469 A 0.2175335 0.2175335 0 0 0 114.69727 119.51172 C 114.37729 118.88982 114.47491 117.87494 114.68359 117.02344 C 114.89227 116.17194 115.18945 115.49414 115.18945 115.49414 A 0.2175335 0.2175335 0 0 0 115.07812 115.20703 A 0.2175335 0.2175335 0 0 0 115.00391 115.18945 z "
         id="path868" />
      <path
         id="path1032"
         style="color:#000000;font-style:normal;font-variant:normal;font-weight:600;font-stretch:normal;font-size:10.9155px;line-height:1.25;font-family:Montserrat;-inkscape-font-specification:'Montserrat Semi-Bold';font-variant-ligatures:normal;font-variant-position:normal;font-variant-caps:normal;font-variant-numeric:normal;font-variant-alternates:normal;font-variant-east-asian:normal;font-feature-settings:normal;font-variation-settings:normal;text-indent:0;text-align:start;text-decoration:none;text-decoration-line:none;text-decoration-style:solid;text-decoration-color:#000000;letter-spacing:normal;word-spacing:normal;text-transform:none;writing-mode:lr-tb;direction:ltr;text-orientation:mixed;dominant-baseline:auto;baseline-shift:baseline;text-anchor:start;white-space:normal;shape-padding:0;shape-margin:0;inline-size:0;clip-rule:nonzero;display:inline;overflow:visible;visibility:visible;isolation:auto;mix-blend-mode:normal;color-interpolation:sRGB;color-interpolation-filters:linearRGB;solid-color:#000000;solid-opacity:1;vector-effect:none;fill:#d8e9fd;fill-opacity:1;fill-rule:nonzero;stroke:none;stroke-width:0.551085;stroke-linecap:butt;stroke-linejoin:miter;stroke-miterlimit:4;stroke-dasharray:none;stroke-dashoffset:0;stroke-opacity:1;color-rendering:auto;image-rendering:auto;shape-rendering:auto;text-rendering:auto;enable-background:accumulate;stop-color:#000000"
         d="m 111.43148,118.19675 -0.59579,0.0959 c 0.0966,0.15427 0.20052,0.30348 0.31102,0.44815 l 0.62726,-0.10042 c -0.12208,-0.1423 -0.23628,-0.2902 -0.34249,-0.44366 z" />
      <path
         id="path1041"
         style="color:#000000;font-style:normal;font-variant:normal;font-weight:600;font-stretch:normal;font-size:10.9155px;line-height:1.25;font-family:Montserrat;-inkscape-font-specification:'Montserrat Semi-Bold';font-variant-ligatures:normal;font-variant-position:normal;font-variant-caps:normal;font-variant-numeric:normal;font-variant-alternates:normal;font-variant-east-asian:normal;font-feature-settings:normal;font-variation-settings:normal;text-indent:0;text-align:start;text-decoration:none;text-decoration-line:none;text-decoration-style:solid;text-decoration-color:#000000;letter-spacing:normal;word-spacing:normal;text-transform:none;writing-mode:lr-tb;direction:ltr;text-orientation:mixed;dominant-baseline:auto;baseline-shift:baseline;text-anchor:start;white-space:normal;shape-padding:0;shape-margin:0;inline-size:0;clip-rule:nonzero;display:inline;overflow:visible;visibility:visible;isolation:auto;mix-blend-mode:normal;color-interpolation:sRGB;color-interpolation-filters:linearRGB;solid-color:#000000;solid-opacity:1;vector-effect:none;fill:#d8e9fd;fill-opacity:1;fill-rule:nonzero;stroke:none;stroke-width:0.551085;stroke-linecap:butt;stroke-linejoin:miter;stroke-miterlimit:4;stroke-dasharray:none;stroke-dashoffset:0;stroke-opacity:1;color-rendering:auto;image-rendering:auto;shape-rendering:auto;text-rendering:auto;enable-background:accumulate;stop-color:#000000"
         d="m 124.58686,120.08155 -0.71608,0.11391 c -0.1247,0.19309 -0.25585,0.37982 -0.39269,0.56057 l 0.76254,-0.12103 c 0.12053,-0.1795 0.23621,-0.3639 0.34623,-0.55345 z" />
      <path
         id="path1056"
         style="color:#000000;font-style:normal;font-variant:normal;font-weight:600;font-stretch:normal;font-size:10.9155px;line-height:1.25;font-family:Montserrat;-inkscape-font-specification:'Montserrat Semi-Bold';font-variant-ligatures:normal;font-variant-position:normal;font-variant-caps:normal;font-variant-numeric:normal;font-variant-alternates:normal;font-variant-east-asian:normal;font-feature-settings:normal;font-variation-settings:normal;text-indent:0;text-align:start;text-decoration:none;text-decoration-line:none;text-decoration-style:solid;text-decoration-color:#000000;letter-spacing:normal;word-spacing:normal;text-transform:none;writing-mode:lr-tb;direction:ltr;text-orientation:mixed;dominant-baseline:auto;baseline-shift:baseline;text-anchor:start;white-space:normal;shape-padding:0;shape-margin:0;inline-size:0;clip-rule:nonzero;display:inline;overflow:visible;visibility:visible;isolation:auto;mix-blend-mode:normal;color-interpolation:sRGB;color-interpolation-filters:linearRGB;solid-color:#000000;solid-opacity:1;vector-effect:none;fill:#d8e9fd;fill-opacity:1;fill-rule:nonzero;stroke:none;stroke-width:0.551085;stroke-linecap:butt;stroke-linejoin:miter;stroke-miterlimit:4;stroke-dasharray:none;stroke-dashoffset:0;stroke-opacity:1;color-rendering:auto;image-rendering:auto;shape-rendering:auto;text-rendering:auto;enable-background:accumulate;stop-color:#000000"
         d="m 125.97928,115.8608 -0.56805,0.0914 c -0.0226,0.17258 -0.0474,0.34404 -0.0776,0.51298 l 0.57331,-0.0933 c 0.0274,-0.169 0.0521,-0.33898 0.0723,-0.5111 z" />
      <path
         style="color:#000000;font-style:normal;font-variant:normal;font-weight:normal;font-stretch:normal;font-size:medium;line-height:normal;font-family:sans-serif;font-variant-ligatures:normal;font-variant-position:normal;font-variant-caps:normal;font-variant-numeric:normal;font-variant-alternates:normal;font-variant-east-asian:normal;font-feature-settings:normal;font-variation-settings:normal;text-indent:0;text-align:start;text-decoration:none;text-decoration-line:none;text-decoration-style:solid;text-decoration-color:#000000;letter-spacing:normal;word-spacing:normal;text-transform:none;writing-mode:lr-tb;direction:ltr;text-orientation:mixed;dominant-baseline:auto;baseline-shift:baseline;text-anchor:start;white-space:normal;shape-padding:0;shape-margin:0;inline-size:0;clip-rule:nonzero;display:inline;overflow:visible;visibility:visible;isolation:auto;mix-blend-mode:normal;color-interpolation:sRGB;color-interpolation-filters:linearRGB;solid-color:#000000;solid-opacity:1;vector-effect:none;fill:#999999;fill-opacity:1;fill-rule:nonzero;stroke:none;stroke-width:0.265;stroke-linecap:round;stroke-linejoin:miter;stroke-miterlimit:4;stroke-dasharray:none;stroke-dashoffset:0;stroke-opacity:1;color-rendering:auto;image-rendering:auto;shape-rendering:auto;text-rendering:auto;enable-background:accumulate;stop-color:#000000;stop-opacity:1;opacity:1"
         d="M 120.64453 111.70312 A 0.13249999 0.13249999 0 0 0 120.51172 111.83594 A 0.13249999 0.13249999 0 0 0 120.64453 111.9668 L 122.20703 111.9668 A 0.13249999 0.13249999 0 0 0 122.33984 111.83594 A 0.13249999 0.13249999 0 0 0 122.20703 111.70312 L 120.64453 111.70312 z "
         id="path855" />
    </g>
    <text
       xml:space="preserve"
       style="font-style:normal;font-variant:normal;font-weight:normal;font-stretch:normal;font-size:10.5833px;line-height:1.25;font-family:Montserrat;-inkscape-font-specification:Montserrat;stroke-width:0.264583"
       x="88.143173"
       y="148.25075"
       id="text2214-7"><tspan
         sodipodi:role="line"
         id="tspan2212-0"
         x="88.143173"
         y="148.25075"
         style="font-style:normal;font-variant:normal;font-weight:normal;font-stretch:normal;font-family:Montserrat;-inkscape-font-specification:Montserrat;stroke-width:0.264583" /></text>
  </g>
  <style
     id="style1851">.style0{enable-background: new 0 0 920 320;}.style1{fill: #669999;}.style2{opacity: 0.5;}.style3{fill: #FFFFFF;}.style4{opacity: 0.25;}.style5{opacity: 0.5;fill: #FFFFFF;}</style>
  <style
     id="style1851-3">.style0{enable-background: new 0 0 920 320;}.style1{fill: #669999;}.style2{opacity: 0.5;}.style3{fill: #FFFFFF;}.style4{opacity: 0.25;}.style5{opacity: 0.5;fill: #FFFFFF;}</style>
</svg>
