<?xml version="1.0" encoding="UTF-8" standalone="no"?>
<svg
   xmlns:dc="http://purl.org/dc/elements/1.1/"
   xmlns:cc="http://creativecommons.org/ns#"
   xmlns:rdf="http://www.w3.org/1999/02/22-rdf-syntax-ns#"
   xmlns:svg="http://www.w3.org/2000/svg"
   xmlns="http://www.w3.org/2000/svg"
   xmlns:sodipodi="http://sodipodi.sourceforge.net/DTD/sodipodi-0.dtd"
   xmlns:inkscape="http://www.inkscape.org/namespaces/inkscape"
   width="13.572036mm"
   height="20.948534mm"
   viewBox="0 0 13.572036 20.948534"
   version="1.1"
   id="svg8"
   inkscape:version="1.0.1 (1.0.1+r75)"
   sodipodi:docname="image404.svg">
  <defs
     id="defs2" />
  <sodipodi:namedview
     id="base"
     pagecolor="#ffffff"
     bordercolor="#666666"
     borderopacity="1.0"
     inkscape:pageopacity="0.0"
     inkscape:pageshadow="2"
     inkscape:zoom="11.313708"
     inkscape:cx="29.097619"
     inkscape:cy="30.156382"
     inkscape:document-units="mm"
     inkscape:current-layer="layer1"
     inkscape:document-rotation="0"
     showgrid="false"
     inkscape:window-width="1366"
     inkscape:window-height="713"
     inkscape:window-x="0"
     inkscape:window-y="27"
     inkscape:window-maximized="1"
     showguides="true"
     inkscape:guide-bbox="true"
     inkscape:lockguides="true"
     fit-margin-top="0"
     fit-margin-left="0"
     fit-margin-right="0"
     fit-margin-bottom="0"
     inkscape:snap-global="false"
     inkscape:object-paths="true">
    <sodipodi:guide
       position="-39.669706,-11.808443"
       orientation="1,0"
       id="guide2231"
       inkscape:locked="true" />
  </sodipodi:namedview>
  <metadata
     id="metadata5">
    <rdf:RDF>
      <cc:Work
         rdf:about="">
        <dc:format>image/svg+xml</dc:format>
        <dc:type
           rdf:resource="http://purl.org/dc/dcmitype/StillImage" />
        <dc:title />
      </cc:Work>
    </rdf:RDF>
  </metadata>
  <g
     inkscape:label="Layer 1"
     inkscape:groupmode="layer"
     id="layer1"
     transform="translate(-108.62654,-102.64756)">
    <text
       xml:space="preserve"
       style="font-style:normal;font-variant:normal;font-weight:normal;font-stretch:normal;font-size:10.5833px;line-height:1.25;font-family:Montserrat;-inkscape-font-specification:Montserrat;stroke-width:0.264583"
       x="41.535248"
       y="155.57552"
       id="text2214"><tspan
         sodipodi:role="line"
         id="tspan2212"
         x="41.535248"
         y="155.57552"
         style="font-style:normal;font-variant:normal;font-weight:normal;font-stretch:normal;font-family:Montserrat;-inkscape-font-specification:Montserrat;stroke-width:0.264583" /></text>
    <text
       xml:space="preserve"
       style="font-style:normal;font-variant:normal;font-weight:normal;font-stretch:normal;font-size:10.5833px;line-height:1.25;font-family:Montserrat;-inkscape-font-specification:Montserrat;stroke-width:0.264583"
       x="88.143173"
       y="148.25075"
       id="text2214-7"><tspan
         sodipodi:role="line"
         id="tspan2212-0"
         x="88.143173"
         y="148.25075"
         style="font-style:normal;font-variant:normal;font-weight:normal;font-stretch:normal;font-family:Montserrat;-inkscape-font-specification:Montserrat;stroke-width:0.264583" /></text>
    <path
       style="color:#000000;font-style:normal;font-variant:normal;font-weight:normal;font-stretch:normal;font-size:medium;line-height:normal;font-family:sans-serif;font-variant-ligatures:normal;font-variant-position:normal;font-variant-caps:normal;font-variant-numeric:normal;font-variant-alternates:normal;font-variant-east-asian:normal;font-feature-settings:normal;font-variation-settings:normal;text-indent:0;text-align:start;text-decoration:none;text-decoration-line:none;text-decoration-style:solid;text-decoration-color:#000000;letter-spacing:normal;word-spacing:normal;text-transform:none;writing-mode:lr-tb;direction:ltr;text-orientation:mixed;dominant-baseline:auto;baseline-shift:baseline;text-anchor:start;white-space:normal;shape-padding:0;shape-margin:0;inline-size:0;clip-rule:nonzero;display:inline;overflow:visible;visibility:visible;isolation:auto;mix-blend-mode:normal;color-interpolation:sRGB;color-interpolation-filters:linearRGB;solid-color:#000000;solid-opacity:1;vector-effect:none;fill:#c6c6c6;fill-opacity:1;fill-rule:nonzero;stroke:none;stroke-width:0.286317;stroke-linecap:round;stroke-linejoin:miter;stroke-miterlimit:4;stroke-dasharray:none;stroke-dashoffset:0;stroke-opacity:1;color-rendering:auto;image-rendering:auto;shape-rendering:auto;text-rendering:auto;enable-background:accumulate;stop-color:#000000"
       d="m 121.41322,111.69129 c -0.0168,0.002 -0.0331,0.008 -0.0481,0.0156 -0.0699,0.0363 -0.0973,0.12233 -0.0613,0.19242 0.40028,0.77704 0.53552,1.75217 0.24293,2.45933 -0.11479,0.27742 -0.29147,0.51483 -0.54702,0.69486 l 0.0999,0.27711 c 0.33464,-0.21711 0.5696,-0.51906 0.71172,-0.86253 0.33872,-0.81862 0.17836,-1.86104 -0.25375,-2.69986 -0.0273,-0.0533 -0.0849,-0.084 -0.14432,-0.077 z"
       id="path859"
       sodipodi:nodetypes="cccsccsccc" />
    <path
       id="path874"
       style="color:#000000;font-style:normal;font-variant:normal;font-weight:600;font-stretch:normal;font-size:10.9155px;line-height:1.25;font-family:Montserrat;-inkscape-font-specification:'Montserrat Semi-Bold';font-variant-ligatures:normal;font-variant-position:normal;font-variant-caps:normal;font-variant-numeric:normal;font-variant-alternates:normal;font-variant-east-asian:normal;font-feature-settings:normal;font-variation-settings:normal;text-indent:0;text-align:start;text-decoration:none;text-decoration-line:none;text-decoration-style:solid;text-decoration-color:#000000;letter-spacing:normal;word-spacing:normal;text-transform:none;writing-mode:lr-tb;direction:ltr;text-orientation:mixed;dominant-baseline:auto;baseline-shift:baseline;text-anchor:start;white-space:normal;shape-padding:0;shape-margin:0;inline-size:0;clip-rule:nonzero;display:inline;overflow:visible;visibility:visible;isolation:auto;mix-blend-mode:normal;color-interpolation:sRGB;color-interpolation-filters:linearRGB;solid-color:#000000;solid-opacity:1;vector-effect:none;fill:#d8e9fd;fill-opacity:1;fill-rule:nonzero;stroke:none;stroke-width:0.339323;stroke-linecap:butt;stroke-linejoin:miter;stroke-miterlimit:4;stroke-dasharray:none;stroke-dashoffset:0;stroke-opacity:1;color-rendering:auto;image-rendering:auto;shape-rendering:auto;text-rendering:auto;enable-background:accumulate;stop-color:#000000"
       d="m 113.37191,110.75088 c -0.57273,0.1365 -1.11478,0.3465 -1.62309,0.63447 l 0.18996,0.28192 c 0.54369,-0.30487 1.12648,-0.51659 1.74941,-0.63893 z m 3.37791,0.028 -0.24214,0.29178 c 0.45136,0.10311 0.88012,0.25384 1.28676,0.45342 l 0.0204,-0.36306 c -0.34113,-0.15811 -0.69552,-0.28718 -1.06498,-0.38214 z m 1.70709,0.72865 -0.0302,0.37833 c 0.76895,0.50645 1.37626,1.16873 1.8261,1.99283 v 10e-4 h 0.001 c 0.52308,0.93241 0.7853,1.9923 0.7853,3.18954 0,1.19725 -0.26298,2.26505 -0.78657,3.21341 v 9.5e-4 c -0.50937,0.93319 -1.21992,1.65733 -2.13951,2.18406 -0.91868,0.52622 -1.95529,0.79007 -3.12209,0.79007 -1.15197,0 -2.18117,-0.26368 -3.10013,-0.79007 -0.91892,-0.52634 -1.63602,-1.25149 -2.15988,-2.18406 -0.50953,-0.94853 -0.76493,-2.01637 -0.76493,-3.21436 0,-1.19739 0.25386,-2.2573 0.76239,-3.18954 l 10e-4,-9.5e-4 c 0.32283,-0.57507 0.71982,-1.07111 1.19162,-1.49073 l -0.21637,-0.26059 c -0.50484,0.44698 -0.93007,0.97623 -1.27244,1.58649 v 0.001 9.6e-4 c -0.53807,0.98579 -0.80566,2.10673 -0.80566,3.35309 0,1.24636 0.26714,2.37496 0.80471,3.37568 l 9.5e-4,10e-4 v 0.001 c 0.5522,0.9843 1.3193,1.75882 2.29002,2.31484 0.97162,0.55655 2.06441,0.83461 3.26845,0.83461 1.21824,0 2.31846,-0.27788 3.29041,-0.83461 0.97102,-0.5562 1.7316,-1.33097 2.26933,-2.31611 h -0.001 c 0.55259,-1.00089 0.82857,-2.12986 0.82857,-3.37696 0,-1.2461 -0.27505,-2.36738 -0.8273,-3.35277 v -10e-4 c -0.5044,-0.92373 -1.20773,-1.66079 -2.09401,-2.20792 z m -3.46573,1.51618 c -1.04359,0 -1.92834,0.37878 -2.61203,1.12226 v 9.5e-4 l -10e-4,0.001 c -0.67059,0.74574 -1.00293,1.72985 -1.00293,2.92131 0,1.19148 0.33237,2.17528 1.00293,2.92099 h 10e-4 v 0.001 c 0.68363,0.74338 1.56832,1.12321 2.61203,1.12321 1.0437,0 1.92838,-0.37983 2.61203,-1.12321 0.68551,-0.74546 1.02584,-1.73011 1.02584,-2.92226 0,-1.19214 -0.34029,-2.17806 -1.02584,-2.92354 -0.68372,-0.74353 -1.56845,-1.12231 -2.61203,-1.12231 z m 0,0.33919 c 0.96336,0 1.73674,0.33264 2.36193,1.01249 0.62329,0.67777 0.93707,1.56568 0.93707,2.69412 0,1.12844 -0.31375,2.0147 -0.93707,2.69252 -0.62525,0.67987 -1.39869,1.01376 -2.36193,1.01376 -0.96325,0 -1.73672,-0.33389 -2.36193,-1.01376 -0.60855,-0.67741 -0.91511,-1.56408 -0.91511,-2.69252 0,-1.12844 0.30659,-2.01676 0.91511,-2.69412 l 0.001,-9.6e-4 c 0.62494,-0.67895 1.3979,-1.01153 2.36065,-1.01153 z" />
    <circle
       style="fill:#c6c6c6;fill-opacity:1;stroke:none;stroke-width:0.52118;stroke-linecap:round;stroke-linejoin:round;stroke-miterlimit:4;stroke-dasharray:none;stroke-opacity:1"
       id="circle951"
       cx="114.26717"
       cy="-116.70132"
       r="0.45852795"
       transform="scale(1,-1)" />
    <path
       style="color:#000000;font-style:normal;font-variant:normal;font-weight:normal;font-stretch:normal;font-size:medium;line-height:normal;font-family:sans-serif;font-variant-ligatures:normal;font-variant-position:normal;font-variant-caps:normal;font-variant-numeric:normal;font-variant-alternates:normal;font-variant-east-asian:normal;font-feature-settings:normal;font-variation-settings:normal;text-indent:0;text-align:start;text-decoration:none;text-decoration-line:none;text-decoration-style:solid;text-decoration-color:#000000;letter-spacing:normal;word-spacing:normal;text-transform:none;writing-mode:lr-tb;direction:ltr;text-orientation:mixed;dominant-baseline:auto;baseline-shift:baseline;text-anchor:start;white-space:normal;shape-padding:0;shape-margin:0;inline-size:0;clip-rule:nonzero;display:inline;overflow:visible;visibility:visible;isolation:auto;mix-blend-mode:normal;color-interpolation:sRGB;color-interpolation-filters:linearRGB;solid-color:#000000;solid-opacity:1;vector-effect:none;fill:#c6c6c6;fill-opacity:1;fill-rule:nonzero;stroke:none;stroke-width:0.353328;stroke-linecap:round;stroke-linejoin:miter;stroke-miterlimit:4;stroke-dasharray:none;stroke-dashoffset:0;stroke-opacity:1;color-rendering:auto;image-rendering:auto;shape-rendering:auto;text-rendering:auto;enable-background:accumulate;stop-color:#000000"
       d="m 112.22573,113.58968 a 0.17666397,0.17666397 0 0 0 -0.0646,0.1901 c 0,0 0.17239,0.60552 0.50022,1.27633 0.32783,0.67082 0.80141,1.42589 1.48306,1.71462 a 0.17666397,0.17666397 0 0 0 0.23148,-0.0939 0.17666397,0.17666397 0 0 0 -0.0939,-0.23148 c -0.523,-0.22154 -0.98986,-0.90539 -1.30249,-1.54506 -0.31262,-0.63969 -0.47971,-1.21704 -0.47971,-1.21704 a 0.17666397,0.17666397 0 0 0 -0.21875,-0.12121 0.17666397,0.17666397 0 0 0 -0.0555,0.0276 z"
       id="path868"
       inkscape:transform-center-x="-0.29856509"
       inkscape:transform-center-y="0.72709744" />
    <path
       id="path1032"
       style="color:#000000;font-style:normal;font-variant:normal;font-weight:600;font-stretch:normal;font-size:10.9155px;line-height:1.25;font-family:Montserrat;-inkscape-font-specification:'Montserrat Semi-Bold';font-variant-ligatures:normal;font-variant-position:normal;font-variant-caps:normal;font-variant-numeric:normal;font-variant-alternates:normal;font-variant-east-asian:normal;font-feature-settings:normal;font-variation-settings:normal;text-indent:0;text-align:start;text-decoration:none;text-decoration-line:none;text-decoration-style:solid;text-decoration-color:#000000;letter-spacing:normal;word-spacing:normal;text-transform:none;writing-mode:lr-tb;direction:ltr;text-orientation:mixed;dominant-baseline:auto;baseline-shift:baseline;text-anchor:start;white-space:normal;shape-padding:0;shape-margin:0;inline-size:0;clip-rule:nonzero;display:inline;overflow:visible;visibility:visible;isolation:auto;mix-blend-mode:normal;color-interpolation:sRGB;color-interpolation-filters:linearRGB;solid-color:#000000;solid-opacity:1;vector-effect:none;fill:#d8e9fd;fill-opacity:1;fill-rule:nonzero;stroke:none;stroke-width:0.339323;stroke-linecap:butt;stroke-linejoin:miter;stroke-miterlimit:4;stroke-dasharray:none;stroke-dashoffset:0;stroke-opacity:1;color-rendering:auto;image-rendering:auto;shape-rendering:auto;text-rendering:auto;enable-background:accumulate;stop-color:#000000"
       d="m 112.36829,119.42977 -0.36685,0.059 c 0.0595,0.095 0.12347,0.18686 0.19151,0.27594 l 0.38622,-0.0618 c -0.0752,-0.0876 -0.14548,-0.17869 -0.21088,-0.27318 z" />
    <path
       id="path1041"
       style="color:#000000;font-style:normal;font-variant:normal;font-weight:600;font-stretch:normal;font-size:10.9155px;line-height:1.25;font-family:Montserrat;-inkscape-font-specification:'Montserrat Semi-Bold';font-variant-ligatures:normal;font-variant-position:normal;font-variant-caps:normal;font-variant-numeric:normal;font-variant-alternates:normal;font-variant-east-asian:normal;font-feature-settings:normal;font-variation-settings:normal;text-indent:0;text-align:start;text-decoration:none;text-decoration-line:none;text-decoration-style:solid;text-decoration-color:#000000;letter-spacing:normal;word-spacing:normal;text-transform:none;writing-mode:lr-tb;direction:ltr;text-orientation:mixed;dominant-baseline:auto;baseline-shift:baseline;text-anchor:start;white-space:normal;shape-padding:0;shape-margin:0;inline-size:0;clip-rule:nonzero;display:inline;overflow:visible;visibility:visible;isolation:auto;mix-blend-mode:normal;color-interpolation:sRGB;color-interpolation-filters:linearRGB;solid-color:#000000;solid-opacity:1;vector-effect:none;fill:#d8e9fd;fill-opacity:1;fill-rule:nonzero;stroke:none;stroke-width:0.339323;stroke-linecap:butt;stroke-linejoin:miter;stroke-miterlimit:4;stroke-dasharray:none;stroke-dashoffset:0;stroke-opacity:1;color-rendering:auto;image-rendering:auto;shape-rendering:auto;text-rendering:auto;enable-background:accumulate;stop-color:#000000"
       d="m 120.46853,120.59031 -0.44091,0.0701 c -0.0768,0.11889 -0.15754,0.23386 -0.2418,0.34516 l 0.46953,-0.0745 c 0.0742,-0.11053 0.14544,-0.22407 0.21318,-0.34078 z" />
    <path
       id="path1056"
       style="color:#000000;font-style:normal;font-variant:normal;font-weight:600;font-stretch:normal;font-size:10.9155px;line-height:1.25;font-family:Montserrat;-inkscape-font-specification:'Montserrat Semi-Bold';font-variant-ligatures:normal;font-variant-position:normal;font-variant-caps:normal;font-variant-numeric:normal;font-variant-alternates:normal;font-variant-east-asian:normal;font-feature-settings:normal;font-variation-settings:normal;text-indent:0;text-align:start;text-decoration:none;text-decoration-line:none;text-decoration-style:solid;text-decoration-color:#000000;letter-spacing:normal;word-spacing:normal;text-transform:none;writing-mode:lr-tb;direction:ltr;text-orientation:mixed;dominant-baseline:auto;baseline-shift:baseline;text-anchor:start;white-space:normal;shape-padding:0;shape-margin:0;inline-size:0;clip-rule:nonzero;display:inline;overflow:visible;visibility:visible;isolation:auto;mix-blend-mode:normal;color-interpolation:sRGB;color-interpolation-filters:linearRGB;solid-color:#000000;solid-opacity:1;vector-effect:none;fill:#d8e9fd;fill-opacity:1;fill-rule:nonzero;stroke:none;stroke-width:0.339323;stroke-linecap:butt;stroke-linejoin:miter;stroke-miterlimit:4;stroke-dasharray:none;stroke-dashoffset:0;stroke-opacity:1;color-rendering:auto;image-rendering:auto;shape-rendering:auto;text-rendering:auto;enable-background:accumulate;stop-color:#000000"
       d="m 121.3259,117.99144 -0.34977,0.0563 c -0.0139,0.10626 -0.0292,0.21183 -0.0478,0.31586 l 0.35301,-0.0575 c 0.0169,-0.10406 0.0321,-0.20873 0.0445,-0.31471 z" />
    <path
       id="path999"
       style="color:#000000;font-style:normal;font-variant:normal;font-weight:600;font-stretch:normal;font-size:10.9155px;line-height:1.25;font-family:Montserrat;-inkscape-font-specification:'Montserrat Semi-Bold';font-variant-ligatures:normal;font-variant-position:normal;font-variant-caps:normal;font-variant-numeric:normal;font-variant-alternates:normal;font-variant-east-asian:normal;font-feature-settings:normal;font-variation-settings:normal;text-indent:0;text-align:start;text-decoration:none;text-decoration-line:none;text-decoration-style:solid;text-decoration-color:#000000;letter-spacing:normal;word-spacing:normal;text-transform:none;writing-mode:lr-tb;direction:ltr;text-orientation:mixed;dominant-baseline:auto;baseline-shift:baseline;text-anchor:start;white-space:normal;shape-padding:0;shape-margin:0;inline-size:0;clip-rule:nonzero;display:inline;overflow:visible;visibility:visible;isolation:auto;mix-blend-mode:normal;color-interpolation:sRGB;color-interpolation-filters:linearRGB;solid-color:#000000;solid-opacity:1;vector-effect:none;fill:#d8e9fd;fill-opacity:1;fill-rule:nonzero;stroke:none;stroke-width:0.206269;stroke-linecap:butt;stroke-linejoin:round;stroke-miterlimit:4;stroke-dasharray:0.825079, 0.412538;stroke-dashoffset:0;stroke-opacity:1;color-rendering:auto;image-rendering:auto;shape-rendering:auto;text-rendering:auto;enable-background:accumulate;stop-color:#000000"
       d="m 113.0249,107.45747 c -0.003,0.003 -0.006,0.006 -0.009,0.009 l -0.39162,0.42709 0.15247,0.13941 0.32155,-0.35156 0.10585,0.0961 0.13853,-0.15256 -0.18128,-0.16501 c -0.0385,-0.0351 -0.0971,-0.0361 -0.13666,-0.002 z m -0.67909,0.74034 -0.44968,0.49122 c -0.0385,0.0422 -0.0354,0.10766 0.007,0.14598 l 0.1175,0.10665 0.13881,-0.1522 -0.0413,-0.0375 0.38031,-0.41483 z m 1.30219,-0.29527 -0.13842,0.15269 0.61007,0.55525 0.13864,-0.15266 z m -1.18358,1.16426 -0.13864,0.15266 0.61028,0.55528 0.13841,-0.15269 z m 8.31776,-6.41924 -0.54904,0.61595 0.0726,0.23028 0.63045,-0.70869 z m -0.82331,0.92372 -0.54914,0.61582 0.15403,0.13733 0.54913,-0.61582 z m -0.8239,0.92399 -0.54862,0.61622 0.15363,0.13704 0.54903,-0.61594 z m 2.02651,-1.62803 -0.13771,0.15357 0.61534,0.54953 0.13785,-0.15363 z m -2.84939,2.55203 -0.54914,0.61583 0.15372,0.13697 0.54892,-0.61585 z m -0.82391,0.924 -0.54904,0.61595 0.15406,0.1373 0.54874,-0.61631 z m -2.9247,2.39238 -0.13881,0.1522 0.51468,0.46829 c 0.0425,0.0384 0.10799,0.0348 0.14608,-0.008 l 0.0863,-0.0964 -0.15402,-0.13733 -0.0166,0.0189 z m -1.1837,1.16436 -0.13853,0.15256 0.59437,0.54047 0.0158,0.0147 0.13901,-0.15296 -0.0157,-0.014 z m 3.28501,-2.63311 -0.54892,0.61585 0.15406,0.1373 0.54901,-0.61572 z m -0.82368,0.92402 -0.54914,0.61583 0.15451,0.13693 0.54914,-0.61583 z m 6.1253,-4.62478 -0.13741,0.15392 0.12112,0.10837 -0.30421,0.34048 0.15402,0.13753 0.37245,-0.41776 c 0.0378,-0.0424 0.0343,-0.1073 -0.008,-0.14529 z m -0.59518,0.91004 -0.64339,0.72018 0.0906,0.20844 0.70646,-0.79078 z m -0.8246,0.92314 -0.54943,0.61546 0.15314,0.13724 0.54983,-0.61497 z m -6.25099,5.33327 -0.13882,0.1522 0.61016,0.55538 0.13894,-0.1523 z m 5.42651,-4.41023 -0.54953,0.61534 0.15323,0.13736 0.5502,-0.61527 z m -0.82469,0.92302 -0.54944,0.61546 0.15373,0.13696 0.54983,-0.61497 z m -0.82448,0.92304 -0.54983,0.61498 0.15402,0.13733 0.54971,-0.61487 z m -0.8246,0.92315 -0.69207,0.7789 0.0752,0.0663 0.17902,-0.0418 0.59194,-0.6661 z m -0.8242,0.92262 -0.53259,0.59059 0.15211,0.1397 0.53424,-0.59254 z m -0.80275,0.91387 -0.55736,0.60873 0.15185,0.13911 0.55723,-0.60863 z"
       sodipodi:nodetypes="ccccccccccccccccccccccccccccccccccccccccccccccccccccccccccccccccccccccccccccccccccccccccccccccccccccccccccccccccccccccccccccccccccccccccc" />
    <path
       style="color:#000000;font-style:normal;font-variant:normal;font-weight:normal;font-stretch:normal;font-size:medium;line-height:normal;font-family:sans-serif;font-variant-ligatures:normal;font-variant-position:normal;font-variant-caps:normal;font-variant-numeric:normal;font-variant-alternates:normal;font-variant-east-asian:normal;font-feature-settings:normal;font-variation-settings:normal;text-indent:0;text-align:start;text-decoration:none;text-decoration-line:none;text-decoration-style:solid;text-decoration-color:#000000;letter-spacing:normal;word-spacing:normal;text-transform:none;writing-mode:lr-tb;direction:ltr;text-orientation:mixed;dominant-baseline:auto;baseline-shift:baseline;text-anchor:start;white-space:normal;shape-padding:0;shape-margin:0;inline-size:0;clip-rule:nonzero;display:inline;overflow:visible;visibility:visible;isolation:auto;mix-blend-mode:normal;color-interpolation:sRGB;color-interpolation-filters:linearRGB;solid-color:#000000;solid-opacity:1;vector-effect:none;fill:#999999;fill-opacity:1;fill-rule:nonzero;stroke:none;stroke-width:0.223571;stroke-linecap:round;stroke-linejoin:miter;stroke-miterlimit:4;stroke-dasharray:none;stroke-dashoffset:0;stroke-opacity:1;color-rendering:auto;image-rendering:auto;shape-rendering:auto;text-rendering:auto;enable-background:accumulate;stop-color:#000000"
       d="m 117.46692,115.97759 a 0.11178547,0.11178547 0 0 0 -0.11205,0.11205 0.11178547,0.11178547 0 0 0 0.11205,0.11041 h 1.31822 a 0.11178547,0.11178547 0 0 0 0.11205,-0.11041 0.11178547,0.11178547 0 0 0 -0.11205,-0.11205 z"
       id="path855" />
    <path
       style="color:#000000;font-style:normal;font-variant:normal;font-weight:normal;font-stretch:normal;font-size:medium;line-height:normal;font-family:sans-serif;font-variant-ligatures:normal;font-variant-position:normal;font-variant-caps:normal;font-variant-numeric:normal;font-variant-alternates:normal;font-variant-east-asian:normal;font-feature-settings:normal;font-variation-settings:normal;text-indent:0;text-align:start;text-decoration:none;text-decoration-line:none;text-decoration-style:solid;text-decoration-color:#000000;letter-spacing:normal;word-spacing:normal;text-transform:none;writing-mode:lr-tb;direction:ltr;text-orientation:mixed;dominant-baseline:auto;baseline-shift:baseline;text-anchor:start;white-space:normal;shape-padding:0;shape-margin:0;inline-size:0;clip-rule:nonzero;display:inline;overflow:visible;visibility:visible;isolation:auto;mix-blend-mode:normal;color-interpolation:sRGB;color-interpolation-filters:linearRGB;solid-color:#000000;solid-opacity:1;vector-effect:none;fill:#999999;fill-opacity:1;fill-rule:evenodd;stroke:none;stroke-width:0.303574;stroke-linecap:round;stroke-linejoin:round;stroke-miterlimit:4;stroke-dasharray:none;stroke-dashoffset:0;stroke-opacity:1;color-rendering:auto;image-rendering:auto;shape-rendering:auto;text-rendering:auto;enable-background:accumulate;stop-color:#000000"
       d="m 116.80189,113.63018 c -0.25886,-0.0781 -0.54524,-0.0576 -0.7974,0.0906 -0.42246,0.24834 -0.60685,0.81102 -0.33837,1.24663 0.21779,0.35335 0.70064,0.50633 1.06723,0.2643 0.28399,-0.1875 0.40584,-0.59181 0.18721,-0.88864 -0.079,-0.10718 -0.19418,-0.17978 -0.3228,-0.20561 -0.12864,-0.0258 -0.27885,6.8e-4 -0.39117,0.10201 -0.073,0.0658 -0.11638,0.15237 -0.12703,0.25182 -0.0106,0.0995 0.0289,0.22713 0.13405,0.2958 0.0829,0.0542 0.13681,0.0501 0.21287,0.0299 0.0381,-0.01 0.0879,-0.0309 0.12427,-0.088 0.0364,-0.057 0.0319,-0.13818 0.009,-0.18809 a 0.15178734,0.15178734 0 0 0 -0.1069,-0.086 c 0.0262,-0.011 0.0503,-0.0265 0.0843,-0.0197 0.0515,0.0103 0.1065,0.0453 0.13781,0.0878 0.10494,0.14248 0.0402,0.35552 -0.1099,0.45457 -0.21186,0.13989 -0.50792,0.0464 -0.64106,-0.1696 -0.17312,-0.28088 -0.0493,-0.66032 0.23336,-0.82647 0.34965,-0.20554 0.81075,-0.0511 1.0093,0.2986 0.20892,0.36792 0.0934,0.84919 -0.23888,1.10976 a 0.15178734,0.15178734 0 0 0 -0.0257,0.21294 0.15178734,0.15178734 0 0 0 0.21294,0.0256 c 0.44733,-0.35081 0.60345,-0.99211 0.31596,-1.49842 -0.13949,-0.24568 -0.37054,-0.42184 -0.62941,-0.5 z"
       id="path883" />
    <path
       style="color:#000000;font-style:normal;font-variant:normal;font-weight:normal;font-stretch:normal;font-size:medium;line-height:normal;font-family:sans-serif;font-variant-ligatures:normal;font-variant-position:normal;font-variant-caps:normal;font-variant-numeric:normal;font-variant-alternates:normal;font-variant-east-asian:normal;font-feature-settings:normal;font-variation-settings:normal;text-indent:0;text-align:start;text-decoration:none;text-decoration-line:none;text-decoration-style:solid;text-decoration-color:#000000;letter-spacing:normal;word-spacing:normal;text-transform:none;writing-mode:lr-tb;direction:ltr;text-orientation:mixed;dominant-baseline:auto;baseline-shift:baseline;text-anchor:start;white-space:normal;shape-padding:0;shape-margin:0;inline-size:0;clip-rule:nonzero;display:inline;overflow:visible;visibility:visible;isolation:auto;mix-blend-mode:normal;color-interpolation:sRGB;color-interpolation-filters:linearRGB;solid-color:#000000;solid-opacity:1;vector-effect:none;fill:#999999;fill-opacity:1;fill-rule:evenodd;stroke:none;stroke-width:0.242849;stroke-linecap:round;stroke-linejoin:round;stroke-miterlimit:4;stroke-dasharray:none;stroke-dashoffset:0;stroke-opacity:1;color-rendering:auto;image-rendering:auto;shape-rendering:auto;text-rendering:auto;enable-background:accumulate;stop-color:#000000"
       d="m 119.55179,113.78024 c -0.20709,-0.0625 -0.43618,-0.0461 -0.6379,0.0725 -0.33796,0.19866 -0.48546,0.64879 -0.27068,0.99726 0.17422,0.28267 0.56049,0.40506 0.85375,0.21144 0.22718,-0.14999 0.32464,-0.47343 0.14976,-0.71089 -0.0632,-0.0857 -0.15534,-0.14381 -0.25824,-0.16448 -0.10289,-0.0207 -0.22307,5.6e-4 -0.31293,0.0816 -0.0584,0.0526 -0.0931,0.1219 -0.1016,0.20146 -0.009,0.0796 0.0231,0.18169 0.10724,0.23662 0.0663,0.0433 0.10943,0.0401 0.17027,0.024 0.0305,-0.008 0.0703,-0.0247 0.0994,-0.0704 0.0291,-0.0456 0.0255,-0.11054 0.007,-0.15047 a 0.12142516,0.12142516 0 0 0 -0.0855,-0.0688 c 0.021,-0.009 0.0402,-0.0212 0.0674,-0.0157 0.0412,0.008 0.0852,0.0362 0.11023,0.0703 0.084,0.11399 0.0321,0.28441 -0.0879,0.36365 -0.16949,0.11191 -0.40633,0.0371 -0.51284,-0.13568 -0.13847,-0.22469 -0.0394,-0.52823 0.1867,-0.66115 0.27969,-0.16442 0.64856,-0.0409 0.8074,0.23887 0.16713,0.29433 0.0746,0.67933 -0.19109,0.88778 a 0.12142516,0.12142516 0 0 0 -0.0205,0.17035 0.12142516,0.12142516 0 0 0 0.17034,0.0205 c 0.35786,-0.28064 0.48274,-0.79367 0.25277,-1.1987 -0.1116,-0.19654 -0.29643,-0.33746 -0.50352,-0.39998 z"
       id="path960" />
    <path
       style="color:#000000;font-style:normal;font-variant:normal;font-weight:normal;font-stretch:normal;font-size:medium;line-height:normal;font-family:sans-serif;font-variant-ligatures:normal;font-variant-position:normal;font-variant-caps:normal;font-variant-numeric:normal;font-variant-alternates:normal;font-variant-east-asian:normal;font-feature-settings:normal;font-variation-settings:normal;text-indent:0;text-align:start;text-decoration:none;text-decoration-line:none;text-decoration-style:solid;text-decoration-color:#000000;letter-spacing:normal;word-spacing:normal;text-transform:none;writing-mode:lr-tb;direction:ltr;text-orientation:mixed;dominant-baseline:auto;baseline-shift:baseline;text-anchor:start;white-space:normal;shape-padding:0;shape-margin:0;inline-size:0;clip-rule:nonzero;display:inline;overflow:visible;visibility:visible;isolation:auto;mix-blend-mode:normal;color-interpolation:sRGB;color-interpolation-filters:linearRGB;solid-color:#000000;solid-opacity:1;vector-effect:none;fill:#d8e9fd;fill-opacity:1;fill-rule:nonzero;stroke:none;stroke-width:0.286317;stroke-linecap:round;stroke-linejoin:round;stroke-miterlimit:4;stroke-dasharray:none;stroke-dashoffset:0;stroke-opacity:1;color-rendering:auto;image-rendering:auto;shape-rendering:auto;text-rendering:auto;enable-background:accumulate;stop-color:#000000;stop-opacity:1;opacity:1"
       d="M 111.98438 109.26758 A 0.1431585 0.1431585 0 0 0 111.8418 109.37695 L 111.70703 109.91602 L 109.57812 109.39258 A 0.14317281 0.14317281 0 0 0 109.42969 109.61719 L 111.46094 112.39062 A 0.1431585 0.1431585 0 0 0 111.66211 112.42188 A 0.1431585 0.1431585 0 0 0 111.69141 112.2207 L 109.89453 109.76562 L 111.77734 110.22852 A 0.14317281 0.14317281 0 0 0 111.95117 110.12305 L 112.11914 109.44531 A 0.1431585 0.1431585 0 0 0 112.01562 109.27344 A 0.1431585 0.1431585 0 0 0 111.98438 109.26758 z "
       id="path1039" />
    <path
       style="color:#000000;font-style:normal;font-variant:normal;font-weight:normal;font-stretch:normal;font-size:medium;line-height:normal;font-family:sans-serif;font-variant-ligatures:normal;font-variant-position:normal;font-variant-caps:normal;font-variant-numeric:normal;font-variant-alternates:normal;font-variant-east-asian:normal;font-feature-settings:normal;font-variation-settings:normal;text-indent:0;text-align:start;text-decoration:none;text-decoration-line:none;text-decoration-style:solid;text-decoration-color:#000000;letter-spacing:normal;word-spacing:normal;text-transform:none;writing-mode:lr-tb;direction:ltr;text-orientation:mixed;dominant-baseline:auto;baseline-shift:baseline;text-anchor:start;white-space:normal;shape-padding:0;shape-margin:0;inline-size:0;clip-rule:nonzero;display:inline;overflow:visible;visibility:visible;isolation:auto;mix-blend-mode:normal;color-interpolation:sRGB;color-interpolation-filters:linearRGB;solid-color:#000000;solid-opacity:1;vector-effect:none;fill:#d8e9fd;fill-opacity:1;fill-rule:nonzero;stroke:none;stroke-width:0.286317;stroke-linecap:round;stroke-linejoin:round;stroke-miterlimit:4;stroke-dasharray:none;stroke-dashoffset:0;stroke-opacity:1;color-rendering:auto;image-rendering:auto;shape-rendering:auto;text-rendering:auto;enable-background:accumulate;stop-color:#000000;stop-opacity:1;opacity:1"
       d="M 113.04297 104.77539 A 0.14317281 0.14317281 0 0 0 112.9043 104.88477 L 112.33008 107.23633 A 0.1431585 0.1431585 0 0 0 112.43555 107.41016 A 0.1431585 0.1431585 0 0 0 112.60938 107.30469 L 113.11328 105.23242 L 115.66211 108.375 A 0.1431585 0.1431585 0 0 0 115.86328 108.39648 A 0.1431585 0.1431585 0 0 0 115.88477 108.19336 L 113.1543 104.82812 A 0.14317281 0.14317281 0 0 0 113.04297 104.77539 z "
       id="path1043" />
    <path
       style="color:#000000;font-style:normal;font-variant:normal;font-weight:normal;font-stretch:normal;font-size:medium;line-height:normal;font-family:sans-serif;font-variant-ligatures:normal;font-variant-position:normal;font-variant-caps:normal;font-variant-numeric:normal;font-variant-alternates:normal;font-variant-east-asian:normal;font-feature-settings:normal;font-variation-settings:normal;text-indent:0;text-align:start;text-decoration:none;text-decoration-line:none;text-decoration-style:solid;text-decoration-color:#000000;letter-spacing:normal;word-spacing:normal;text-transform:none;writing-mode:lr-tb;direction:ltr;text-orientation:mixed;dominant-baseline:auto;baseline-shift:baseline;text-anchor:start;white-space:normal;shape-padding:0;shape-margin:0;inline-size:0;clip-rule:nonzero;display:inline;overflow:visible;visibility:visible;isolation:auto;mix-blend-mode:normal;color-interpolation:sRGB;color-interpolation-filters:linearRGB;solid-color:#000000;solid-opacity:1;vector-effect:none;fill:#d8e9fd;fill-opacity:1;fill-rule:nonzero;stroke:none;stroke-width:0.286317;stroke-linecap:round;stroke-linejoin:round;stroke-miterlimit:4;stroke-dasharray:none;stroke-dashoffset:0;stroke-opacity:1;color-rendering:auto;image-rendering:auto;shape-rendering:auto;text-rendering:auto;enable-background:accumulate;stop-color:#000000;stop-opacity:1;opacity:1"
       d="M 118.24805 109.36523 A 0.14317281 0.14317281 0 0 0 118.17188 109.40039 L 117.43164 110.05078 L 117.32617 109.89062 A 0.1431585 0.1431585 0 0 0 117.12891 109.84766 A 0.1431585 0.1431585 0 0 0 117.08789 110.04688 L 117.28125 110.3457 A 0.14317281 0.14317281 0 0 0 117.49609 110.375 L 118.08984 109.85156 L 117.91602 111.75 A 0.1431585 0.1431585 0 0 0 118.04492 111.9043 A 0.1431585 0.1431585 0 0 0 118.20117 111.77539 L 118.4082 109.52148 A 0.14317281 0.14317281 0 0 0 118.24805 109.36523 z "
       id="path1047" />
  </g>
  <style
     id="style1851">.style0{enable-background: new 0 0 920 320;}.style1{fill: #669999;}.style2{opacity: 0.5;}.style3{fill: #FFFFFF;}.style4{opacity: 0.25;}.style5{opacity: 0.5;fill: #FFFFFF;}</style>
  <style
     id="style1851-3">.style0{enable-background: new 0 0 920 320;}.style1{fill: #669999;}.style2{opacity: 0.5;}.style3{fill: #FFFFFF;}.style4{opacity: 0.25;}.style5{opacity: 0.5;fill: #FFFFFF;}</style>
</svg>
