<?xml version="1.0" encoding="UTF-8" standalone="no"?>
<svg
   xmlns:dc="http://purl.org/dc/elements/1.1/"
   xmlns:cc="http://creativecommons.org/ns#"
   xmlns:rdf="http://www.w3.org/1999/02/22-rdf-syntax-ns#"
   xmlns:svg="http://www.w3.org/2000/svg"
   xmlns="http://www.w3.org/2000/svg"
   xmlns:sodipodi="http://sodipodi.sourceforge.net/DTD/sodipodi-0.dtd"
   xmlns:inkscape="http://www.inkscape.org/namespaces/inkscape"
   width="37.58168mm"
   height="8.43256mm"
   viewBox="0 0 37.581681 8.43256"
   version="1.1"
   id="svg8"
   inkscape:version="1.0.1 (1.0.1+r75)"
   sodipodi:docname="solodo-logo.svg">
  <defs
     id="defs2" />
  <sodipodi:namedview
     id="base"
     pagecolor="#ffffff"
     bordercolor="#666666"
     borderopacity="1.0"
     inkscape:pageopacity="0.0"
     inkscape:pageshadow="2"
     inkscape:zoom="4"
     inkscape:cx="81.698099"
     inkscape:cy="54.609259"
     inkscape:document-units="mm"
     inkscape:current-layer="layer1"
     inkscape:document-rotation="0"
     showgrid="false"
     inkscape:window-width="1366"
     inkscape:window-height="713"
     inkscape:window-x="0"
     inkscape:window-y="27"
     inkscape:window-maximized="1"
     showguides="false"
     inkscape:guide-bbox="true"
     inkscape:lockguides="true"
     fit-margin-top="0"
     fit-margin-left="0"
     fit-margin-right="0"
     fit-margin-bottom="0"
     inkscape:snap-global="true"
     inkscape:object-paths="true">
    <sodipodi:guide
       position="-39.669706,-11.808443"
       orientation="1,0"
       id="guide2231"
       inkscape:locked="true" />
    <sodipodi:guide
       position="-30.423676,-8.1771598"
       orientation="0.74135169,0.67111673"
       id="guide2244"
       inkscape:locked="true" />
  </sodipodi:namedview>
  <metadata
     id="metadata5">
    <rdf:RDF>
      <cc:Work
         rdf:about="">
        <dc:format>image/svg+xml</dc:format>
        <dc:type
           rdf:resource="http://purl.org/dc/dcmitype/StillImage" />
        <dc:title />
      </cc:Work>
    </rdf:RDF>
  </metadata>
  <g
     inkscape:label="Layer 1"
     inkscape:groupmode="layer"
     id="layer1"
     transform="translate(-96.785669,-116.8793)">
    <text
       xml:space="preserve"
       style="font-style:normal;font-variant:normal;font-weight:normal;font-stretch:normal;font-size:10.5833px;line-height:1.25;font-family:Montserrat;-inkscape-font-specification:Montserrat;stroke-width:0.264583"
       x="41.535248"
       y="155.57552"
       id="text2214"><tspan
         sodipodi:role="line"
         id="tspan2212"
         x="41.535248"
         y="155.57552"
         style="font-style:normal;font-variant:normal;font-weight:normal;font-stretch:normal;font-family:Montserrat;-inkscape-font-specification:Montserrat;stroke-width:0.264583" /></text>
    <path
       id="path860"
       style="font-style:normal;font-variant:normal;font-weight:600;font-stretch:normal;font-size:10.9155px;line-height:1.25;font-family:Montserrat;-inkscape-font-specification:'Montserrat Semi-Bold';fill:#ffffff;fill-opacity:1;stroke-width:0.272889"
       d="m 114.05387,117.03862 -2.75901,6.45335 -1.89342,-0.8325 -0.5364,1.20974 1.90944,0.83923 1.20303,0.52865 0.53588,-1.20923 -0.0145,-0.006 2.77089,-6.46214 z m 11.69334,-0.15932 v 3.08457 c -0.21872,-0.2702 -0.48331,-0.47262 -0.79375,-0.60772 -0.31044,-0.1351 -0.65287,-0.20257 -1.02681,-0.20257 -0.54328,0 -1.03379,0.12774 -1.47123,0.38292 -0.43039,0.25519 -0.76901,0.61522 -1.01596,1.08056 -0.24694,0.46533 -0.37,1.00178 -0.37,1.60972 0,0.60794 0.12306,1.14876 0.37,1.6216 0.24695,0.46535 0.58557,0.82538 1.01596,1.08056 0.43744,0.25518 0.92795,0.38292 1.47123,0.38292 0.38805,0 0.74083,-0.0713 1.05833,-0.21394 0.32456,-0.14261 0.59622,-0.35661 0.81494,-0.64182 v 0.7767 h 1.27021 v -8.3535 z m -26.305373,2.27428 c -0.761995,0 -1.368491,0.17254 -1.820042,0.5178 -0.444498,0.33774 -0.667144,0.79177 -0.667144,1.36219 0,0.43531 0.106145,0.77706 0.317809,1.02474 0.218723,0.24018 0.472435,0.40886 0.761712,0.50643 0.29633,0.0976 0.677418,0.18385 1.143082,0.2589 0.4445,0.0751 0.765696,0.15412 0.963246,0.23668 0.20461,0.0826 0.30696,0.22858 0.30696,0.43873 0,0.44283 -0.39524,0.66456 -1.185455,0.66456 -0.34572,0 -0.698503,-0.0525 -1.058333,-0.15761 -0.352777,-0.11258 -0.656024,-0.25912 -0.910024,-0.43925 l -0.507979,1.0697 c 0.261054,0.19514 0.610039,0.3561 1.047483,0.48369 0.437441,0.12759 0.885494,0.19172 1.344102,0.19172 0.790217,0 1.414666,-0.1692 1.873266,-0.50695 0.45861,-0.33774 0.68782,-0.78791 0.68782,-1.35082 0,-0.4278 -0.10563,-0.75796 -0.3173,-0.99063 -0.2046,-0.23267 -0.45176,-0.39801 -0.74104,-0.49558 -0.28927,-0.0976 -0.65948,-0.18385 -1.111039,-0.2589 -0.451553,-0.0826 -0.786902,-0.16883 -1.005623,-0.2589 -0.211664,-0.0976 -0.317293,-0.25905 -0.317293,-0.48421 0,-0.20264 0.09855,-0.3636 0.296105,-0.48369 0.204611,-0.12759 0.501299,-0.19172 0.889352,-0.19172 0.599718,0 1.139248,0.1504 1.619018,0.45062 l 0.50798,-1.0697 c -0.24694,-0.15762 -0.56434,-0.28149 -0.95239,-0.37156 -0.38806,-0.0976 -0.776219,-0.14624 -1.164273,-0.14624 z m 5.986193,0 c -0.57149,0 -1.08651,0.13108 -1.54512,0.39377 -0.45861,0.2627 -0.81846,0.62711 -1.07952,1.09244 -0.254,0.46534 -0.38086,0.99406 -0.38086,1.58699 0,0.59293 0.12686,1.12603 0.38086,1.59887 0.26106,0.46533 0.62091,0.82923 1.07952,1.09192 0.45861,0.26269 0.97363,0.39429 1.54512,0.39429 0.57856,0 1.09737,-0.1316 1.55598,-0.39429 0.45861,-0.26269 0.81467,-0.62659 1.06867,-1.09192 0.26106,-0.47284 0.39171,-1.00594 0.39171,-1.59887 0,-0.59293 -0.13065,-1.12165 -0.39171,-1.58699 -0.254,-0.46533 -0.61006,-0.82974 -1.06867,-1.09244 -0.45861,-0.26269 -0.97742,-0.39377 -1.55598,-0.39377 z m 11.82564,0 c -0.5715,0 -1.08652,0.13108 -1.54512,0.39377 -0.45861,0.2627 -0.81847,0.62711 -1.07953,1.09244 -0.25399,0.46534 -0.38085,0.99406 -0.38085,1.58699 0,0.59293 0.12686,1.12603 0.38085,1.59887 0.26106,0.46533 0.62092,0.82923 1.07953,1.09192 0.4586,0.26269 0.97362,0.39429 1.54512,0.39429 0.57855,0 1.09685,-0.1316 1.55546,-0.39429 0.45861,-0.26269 0.81519,-0.62659 1.06919,-1.09192 0.26105,-0.47284 0.3917,-1.00594 0.3917,-1.59887 0,-0.59293 -0.13065,-1.12165 -0.3917,-1.58699 -0.254,-0.46533 -0.61058,-0.82974 -1.06919,-1.09244 -0.45861,-0.26269 -0.97691,-0.39377 -1.55546,-0.39377 z m 14.09733,0 c -0.5715,0 -1.08652,0.13108 -1.54512,0.39377 -0.45861,0.2627 -0.81847,0.62711 -1.07953,1.09244 -0.25399,0.46534 -0.38137,0.99406 -0.38137,1.58699 0,0.59293 0.12738,1.12603 0.38137,1.59887 0.26106,0.46533 0.62092,0.82923 1.07953,1.09192 0.4586,0.26269 0.97362,0.39429 1.54512,0.39429 0.57855,0 1.09685,-0.1316 1.55546,-0.39429 0.45861,-0.26269 0.81519,-0.62659 1.06919,-1.09192 0.26105,-0.47284 0.3917,-1.00594 0.3917,-1.59887 0,-0.59293 -0.13065,-1.12165 -0.3917,-1.58699 -0.254,-0.46533 -0.61058,-0.82974 -1.06919,-1.09244 -0.45861,-0.26269 -0.97691,-0.39377 -1.55546,-0.39377 z m -25.92297,1.19321 c 0.48684,0 0.88915,0.17254 1.20665,0.5178 0.3175,0.34524 0.47594,0.79928 0.47594,1.36219 0,0.56291 -0.15844,1.01694 -0.47594,1.36219 -0.3175,0.34524 -0.71981,0.51831 -1.20665,0.51831 -0.48683,0 -0.88914,-0.17307 -1.20664,-0.51831 -0.31044,-0.34525 -0.4656,-0.79928 -0.4656,-1.36219 0,-0.56291 0.15516,-1.01695 0.4656,-1.36219 0.3175,-0.34526 0.71981,-0.5178 1.20664,-0.5178 z m 11.82564,0 c 0.48683,0 0.88915,0.17254 1.20665,0.5178 0.31749,0.34524 0.47593,0.79928 0.47593,1.36219 0,0.56291 -0.15844,1.01694 -0.47593,1.36219 -0.3175,0.34524 -0.71982,0.51831 -1.20665,0.51831 -0.48683,0 -0.88915,-0.17307 -1.20664,-0.51831 -0.31045,-0.34525 -0.46561,-0.79928 -0.46561,-1.36219 0,-0.56291 0.15516,-1.01695 0.46561,-1.36219 0.31749,-0.34526 0.71981,-0.5178 1.20664,-0.5178 z m 6.83162,0 c 0.3175,0 0.60332,0.0791 0.85732,0.23668 0.254,0.1501 0.45541,0.36746 0.60358,0.65267 0.14816,0.28521 0.22221,0.61537 0.22221,0.99064 0,0.37527 -0.074,0.70594 -0.22221,0.99115 -0.14817,0.28521 -0.34958,0.50643 -0.60358,0.66404 -0.254,0.15011 -0.53982,0.22531 -0.85732,0.22531 -0.31749,0 -0.60331,-0.0752 -0.85731,-0.22531 -0.254,-0.15761 -0.4549,-0.37883 -0.60306,-0.66404 -0.14817,-0.28521 -0.22221,-0.61588 -0.22221,-0.99115 0,-0.37527 0.074,-0.70543 0.22221,-0.99064 0.14816,-0.28521 0.34906,-0.50257 0.60306,-0.65267 0.254,-0.15762 0.53982,-0.23668 0.85731,-0.23668 z m 7.26571,0 c 0.48683,0 0.88863,0.17254 1.20613,0.5178 0.3175,0.34524 0.47646,0.79928 0.47646,1.36219 0,0.56291 -0.15896,1.01694 -0.47646,1.36219 -0.3175,0.34524 -0.7193,0.51831 -1.20613,0.51831 -0.48683,0 -0.88915,-0.17307 -1.20664,-0.51831 -0.31045,-0.34525 -0.46561,-0.79928 -0.46561,-1.36219 0,-0.56291 0.15516,-1.01695 0.46561,-1.36219 0.31749,-0.34526 0.71981,-0.5178 1.20664,-0.5178 z"
       sodipodi:nodetypes="ccccccccccccsscssccsccccccscsccccsscccsscsccccscscccssccscssscsccssscsccsscsccssscscssscsccsscscscscsscscscscssccsccsccsccsscssscscs" />
  </g>
  <style
     id="style1851">.style0{enable-background: new 0 0 920 320;}.style1{fill: #669999;}.style2{opacity: 0.5;}.style3{fill: #FFFFFF;}.style4{opacity: 0.25;}.style5{opacity: 0.5;fill: #FFFFFF;}</style>
</svg>
