<?xml version="1.0" encoding="UTF-8" standalone="no"?>
<svg
   xmlns:dc="http://purl.org/dc/elements/1.1/"
   xmlns:cc="http://creativecommons.org/ns#"
   xmlns:rdf="http://www.w3.org/1999/02/22-rdf-syntax-ns#"
   xmlns:svg="http://www.w3.org/2000/svg"
   xmlns="http://www.w3.org/2000/svg"
   xmlns:sodipodi="http://sodipodi.sourceforge.net/DTD/sodipodi-0.dtd"
   xmlns:inkscape="http://www.inkscape.org/namespaces/inkscape"
   width="37.58168mm"
   height="8.43256mm"
   viewBox="0 0 37.581681 8.43256"
   version="1.1"
   id="svg8"
   inkscape:version="1.0.1 (1.0.1+r75)"
   sodipodi:docname="logo-black.svg">
  <defs
     id="defs2" />
  <sodipodi:namedview
     id="base"
     pagecolor="#ffffff"
     bordercolor="#666666"
     borderopacity="1.0"
     inkscape:pageopacity="0.0"
     inkscape:pageshadow="2"
     inkscape:zoom="4"
     inkscape:cx="71.043421"
     inkscape:cy="24.083792"
     inkscape:document-units="mm"
     inkscape:current-layer="layer1"
     inkscape:document-rotation="0"
     showgrid="false"
     inkscape:window-width="1366"
     inkscape:window-height="713"
     inkscape:window-x="0"
     inkscape:window-y="27"
     inkscape:window-maximized="1"
     showguides="false"
     inkscape:guide-bbox="true"
     inkscape:lockguides="true"
     fit-margin-top="0"
     fit-margin-left="0"
     fit-margin-right="0"
     fit-margin-bottom="0"
     inkscape:snap-global="true"
     inkscape:object-paths="true">
    <sodipodi:guide
       position="-39.669706,-11.808443"
       orientation="1,0"
       id="guide2231"
       inkscape:locked="true" />
    <sodipodi:guide
       position="-30.423676,-8.1771598"
       orientation="0.74135169,0.67111673"
       id="guide2244"
       inkscape:locked="true" />
  </sodipodi:namedview>
  <metadata
     id="metadata5">
    <rdf:RDF>
      <cc:Work
         rdf:about="">
        <dc:format>image/svg+xml</dc:format>
        <dc:type
           rdf:resource="http://purl.org/dc/dcmitype/StillImage" />
        <dc:title />
      </cc:Work>
    </rdf:RDF>
  </metadata>
  <g
     inkscape:label="Layer 1"
     inkscape:groupmode="layer"
     id="layer1"
     transform="translate(-96.785669,-116.8793)">
    <text
       xml:space="preserve"
       style="font-style:normal;font-variant:normal;font-weight:normal;font-stretch:normal;font-size:10.5833px;line-height:1.25;font-family:Montserrat;-inkscape-font-specification:Montserrat;stroke-width:0.264583"
       x="41.535248"
       y="155.57552"
       id="text2214"><tspan
         sodipodi:role="line"
         id="tspan2212"
         x="41.535248"
         y="155.57552"
         style="font-style:normal;font-variant:normal;font-weight:normal;font-stretch:normal;font-family:Montserrat;-inkscape-font-specification:Montserrat;stroke-width:0.264583" /></text>
    <path
       id="path860"
       style="font-style:normal;font-variant:normal;font-weight:600;font-stretch:normal;font-size:10.9155px;line-height:1.25;font-family:Montserrat;-inkscape-font-specification:'Montserrat Semi-Bold';fill:#333333;fill-opacity:1;stroke-width:1.03139"
       d="M 65.265625 0.6015625 L 54.837891 24.992188 L 47.681641 21.845703 L 45.654297 26.417969 L 52.871094 29.589844 L 57.417969 31.587891 L 59.443359 27.017578 L 59.388672 26.996094 L 69.861328 2.5722656 L 65.265625 0.6015625 z M 10.039062 8.5957031 C 7.1590814 8.5957031 4.8668057 9.2478147 3.1601562 10.552734 C 1.4801638 11.829232 0.63867188 13.545254 0.63867188 15.701172 C 0.63867188 17.346438 1.0398538 18.638105 1.8398438 19.574219 C 2.6665134 20.481986 3.6254196 21.119513 4.71875 21.488281 C 5.8387374 21.857163 7.2790726 22.183143 9.0390625 22.466797 C 10.719063 22.750639 11.933042 23.04929 12.679688 23.361328 C 13.453017 23.673517 13.839844 24.225264 13.839844 25.019531 C 13.839844 26.693219 12.346014 27.53125 9.359375 27.53125 C 8.0527167 27.53125 6.7193624 27.332813 5.359375 26.935547 C 4.0260446 26.510048 2.8799219 25.956197 1.9199219 25.275391 L 0 29.318359 C 0.98666079 30.055896 2.3056527 30.664254 3.9589844 31.146484 C 5.6123047 31.628714 7.3057409 31.871094 9.0390625 31.871094 C 12.025709 31.871094 14.385849 31.231614 16.119141 29.955078 C 17.85247 28.67858 18.71875 26.977143 18.71875 24.849609 C 18.71875 23.232727 18.319544 21.984851 17.519531 21.105469 C 16.74624 20.226086 15.812092 19.60119 14.71875 19.232422 C 13.625446 18.86354 12.226211 18.53756 10.519531 18.253906 C 8.8128742 17.941717 7.545412 17.615813 6.71875 17.275391 C 5.9187601 16.906509 5.5195312 16.296311 5.5195312 15.445312 C 5.5195312 14.679429 5.8920073 14.071071 6.6386719 13.617188 C 7.4120048 13.134958 8.533343 12.892578 10 12.892578 C 12.266651 12.892578 14.305837 13.461013 16.119141 14.595703 L 18.039062 10.552734 C 17.105746 9.9570052 15.906099 9.4888595 14.439453 9.1484375 C 12.97277 8.7795556 11.505723 8.5957031 10.039062 8.5957031 z M 32.664062 8.5957031 C 30.5041 8.5957031 28.557548 9.0911403 26.824219 10.083984 C 25.09089 11.076866 23.730824 12.454163 22.744141 14.212891 C 21.784141 15.971656 21.304688 17.969942 21.304688 20.210938 C 21.304688 22.451933 21.784141 24.466794 22.744141 26.253906 C 23.730824 28.012634 25.09089 29.388015 26.824219 30.380859 C 28.557548 31.373703 30.5041 31.871094 32.664062 31.871094 C 34.850746 31.871094 36.811593 31.373703 38.544922 30.380859 C 40.278251 29.388015 41.623984 28.012634 42.583984 26.253906 C 43.570668 24.466794 44.064453 22.451933 44.064453 20.210938 C 44.064453 17.969942 43.570668 15.971656 42.583984 14.212891 C 41.623984 12.454163 40.278251 11.076866 38.544922 10.083984 C 36.811593 9.0911403 34.850746 8.5957031 32.664062 8.5957031 z M 77.359375 8.5957031 C 75.199375 8.5957031 73.252823 9.0911403 71.519531 10.083984 C 69.786202 11.076866 68.426137 12.454163 67.439453 14.212891 C 66.479491 15.971656 66 17.969942 66 20.210938 C 66 22.451933 66.479491 24.466794 67.439453 26.253906 C 68.426137 28.012634 69.786202 29.388015 71.519531 30.380859 C 73.252823 31.373703 75.199375 31.871094 77.359375 31.871094 C 79.546021 31.871094 81.504952 31.373703 83.238281 30.380859 C 84.97161 29.388015 86.319297 28.012634 87.279297 26.253906 C 88.265943 24.466794 88.759766 22.451933 88.759766 20.210938 C 88.759766 17.969942 88.265943 15.971656 87.279297 14.212891 C 86.319297 12.454163 84.97161 11.076866 83.238281 10.083984 C 81.504952 9.0911403 79.546021 8.5957031 77.359375 8.5957031 z M 32.664062 13.105469 C 34.504088 13.105469 36.024609 13.75758 37.224609 15.0625 C 38.424609 16.367344 39.023438 18.083404 39.023438 20.210938 C 39.023438 22.338471 38.424609 24.054493 37.224609 25.359375 C 36.024609 26.664219 34.504088 27.318359 32.664062 27.318359 C 30.824075 27.318359 29.303516 26.664219 28.103516 25.359375 C 26.930199 24.054493 26.34375 22.338471 26.34375 20.210938 C 26.34375 18.083404 26.930199 16.367344 28.103516 15.0625 C 29.303516 13.75758 30.824075 13.105469 32.664062 13.105469 z M 77.359375 13.105469 C 79.199362 13.105469 80.719922 13.75758 81.919922 15.0625 C 83.119884 16.367344 83.71875 18.083404 83.71875 20.210938 C 83.71875 22.338471 83.119884 24.054493 81.919922 25.359375 C 80.719922 26.664219 79.199362 27.318359 77.359375 27.318359 C 75.519388 27.318359 73.99879 26.664219 72.798828 25.359375 C 71.625474 24.054493 71.039062 22.338471 71.039062 20.210938 C 71.039062 18.083404 71.625474 16.367344 72.798828 15.0625 C 73.99879 13.75758 75.519388 13.105469 77.359375 13.105469 z "
       transform="matrix(0.26458333,0,0,0.26458333,96.785669,116.8793)" />
    <path
       id="path838"
       style="font-style:normal;font-variant:normal;font-weight:600;font-stretch:normal;font-size:10.9155px;line-height:1.25;font-family:Montserrat;-inkscape-font-specification:'Montserrat Semi-Bold';fill:#60a5fa;fill-opacity:1;stroke-width:1.03181103;stroke-miterlimit:4;stroke-dasharray:none"
       d="M 109.46094 0 L 109.46094 11.658203 C 108.63428 10.636975 107.63425 9.8719423 106.46094 9.3613281 C 105.28762 8.850714 103.99339 8.5957031 102.58008 8.5957031 C 100.52674 8.5957031 98.672848 9.0785089 97.019531 10.042969 C 95.39286 11.007466 94.113042 12.368188 93.179688 14.126953 C 92.246371 15.885681 91.78125 17.913212 91.78125 20.210938 C 91.78125 22.508663 92.246371 24.552732 93.179688 26.339844 C 94.113042 28.098647 95.39286 29.459368 97.019531 30.423828 C 98.672848 31.388288 100.52674 31.871094 102.58008 31.871094 C 104.04672 31.871094 105.38008 31.601612 106.58008 31.0625 C 107.80676 30.523502 108.8335 29.714678 109.66016 28.636719 L 109.66016 31.572266 L 114.46094 31.572266 L 114.46094 0 L 109.46094 0 z M 130.64062 8.5957031 C 128.48063 8.5957031 126.53407 9.0911403 124.80078 10.083984 C 123.06745 11.076866 121.70739 12.454163 120.7207 14.212891 C 119.76074 15.971656 119.2793 17.969942 119.2793 20.210938 C 119.2793 22.451933 119.76074 24.466794 120.7207 26.253906 C 121.70739 28.012634 123.06745 29.388015 124.80078 30.380859 C 126.53407 31.373703 128.48063 31.871094 130.64062 31.871094 C 132.82727 31.871094 134.7862 31.373703 136.51953 30.380859 C 138.25286 29.388015 139.60055 28.012634 140.56055 26.253906 C 141.54719 24.466794 142.04102 22.451933 142.04102 20.210938 C 142.04102 17.969942 141.54719 15.971656 140.56055 14.212891 C 139.60055 12.454163 138.25286 11.076866 136.51953 10.083984 C 134.7862 9.0911403 132.82727 8.5957031 130.64062 8.5957031 z M 103.17969 13.105469 C 104.37969 13.105469 105.45992 13.404422 106.41992 14 C 107.37992 14.567307 108.14116 15.388838 108.70117 16.466797 C 109.26115 17.544756 109.54102 18.792594 109.54102 20.210938 C 109.54102 21.629281 109.26134 22.879072 108.70117 23.957031 C 108.14116 25.03499 107.37992 25.871106 106.41992 26.466797 C 105.45992 27.034142 104.37969 27.318359 103.17969 27.318359 C 101.97973 27.318359 100.89945 27.034142 99.939453 26.466797 C 98.979453 25.871106 98.220131 25.03499 97.660156 23.957031 C 97.100144 22.879072 96.820312 21.629281 96.820312 20.210938 C 96.820312 18.792594 97.099992 17.544756 97.660156 16.466797 C 98.220131 15.388838 98.979453 14.567307 99.939453 14 C 100.89945 13.404271 101.97973 13.105469 103.17969 13.105469 z M 130.64062 13.105469 C 132.48061 13.105469 133.99922 13.75758 135.19922 15.0625 C 136.39922 16.367344 137 18.083404 137 20.210938 C 137 22.338471 136.39922 24.054493 135.19922 25.359375 C 133.99922 26.664219 132.48061 27.318359 130.64062 27.318359 C 128.80064 27.318359 127.28004 26.664219 126.08008 25.359375 C 124.90672 24.054493 124.32031 22.338471 124.32031 20.210938 C 124.32031 18.083404 124.90672 16.367344 126.08008 15.0625 C 127.28004 13.75758 128.80064 13.105469 130.64062 13.105469 z "
       transform="matrix(0.26458333,0,0,0.26458333,96.785669,116.8793)" />
  </g>
  <style
     id="style1851">.style0{enable-background: new 0 0 920 320;}.style1{fill: #669999;}.style2{opacity: 0.5;}.style3{fill: #FFFFFF;}.style4{opacity: 0.25;}.style5{opacity: 0.5;fill: #FFFFFF;}</style>
</svg>
